<svg width="54" height="54" viewBox="0 0 54 54" fill="none" xmlns="http://www.w3.org/2000/svg">
<path d="M45.75 51.5364C47.821 51.5364 49.5 49.8574 49.5 47.7864C49.5 45.7154 47.821 44.0364 45.75 44.0364C43.679 44.0364 42 45.7154 42 47.7864C42 49.8574 43.679 51.5364 45.75 51.5364Z" stroke="#E2E2E2" stroke-width="3" stroke-linecap="round" stroke-linejoin="round"/>
<path d="M20.75 51.5364C22.821 51.5364 24.5 49.8574 24.5 47.7864C24.5 45.7154 22.821 44.0364 20.75 44.0364C18.6789 44.0364 17 45.7154 17 47.7864C17 49.8574 18.6789 51.5364 20.75 51.5364Z" stroke="#E2E2E2" stroke-width="3" stroke-linecap="round" stroke-linejoin="round"/>
<path d="M9.5 6.53644H52L47 34.0364H14.5L9.5 6.53644ZM9.5 6.53644C9.08333 4.86976 7 1.53644 2 1.53644" stroke="#E2E2E2" stroke-width="3" stroke-linecap="round" stroke-linejoin="round"/>
<path d="M46.9999 34.0364H14.4999H10.0769C5.61609 34.0364 3.24994 35.9894 3.24994 39.0364C3.24994 42.0834 5.61609 44.0364 10.0769 44.0364H45.7499" stroke="#E2E2E2" stroke-width="3" stroke-linecap="round" stroke-linejoin="round"/>
</svg>
