<svg width="54" height="53" viewBox="0 0 54 53" fill="none" xmlns="http://www.w3.org/2000/svg">
<path d="M14.5 41.1085V38.6798C14.5 31.9733 20.0964 26.5364 27 26.5364C33.9035 26.5364 39.5 31.9733 39.5 38.6798V41.1085" stroke="white" stroke-width="3" stroke-linecap="round"/>
<path d="M27 26.5364C31.1423 26.5364 34.5 23.2745 34.5 19.2504C34.5 15.2265 31.1423 11.9644 27 11.9644C22.8577 11.9644 19.5 15.2265 19.5 19.2504C19.5 23.2745 22.8577 26.5364 27 26.5364Z" stroke="white" stroke-width="3" stroke-linecap="round" stroke-linejoin="round"/>
<path d="M27 50.8231C40.8071 50.8231 52 39.9496 52 26.5364C52 13.1233 40.8071 2.24973 27 2.24973C13.1929 2.24973 2 13.1233 2 26.5364C2 39.9496 13.1929 50.8231 27 50.8231Z" stroke="white" stroke-width="3"/>
</svg>
