<svg width="256" height="256" viewBox="0 0 256 256" fill="none" xmlns="http://www.w3.org/2000/svg">
<path fill-rule="evenodd" clip-rule="evenodd" d="M106.165 16.084C94.981 22.638 85.643 28 85.415 28C85.187 28 85 26.232 85 24.071C85 17.7 83.561 17 70.464 17C60.223 17 58.966 17.196 58.035 18.934C57.466 19.998 57 26.249 57 32.825V44.781L37.25 56.274C22.271 64.991 17.421 68.292 17.173 69.939C16.561 74.01 18.604 75 27.622 75H36V82.144C36 89.156 35.931 89.348 32.25 92.529L28.5 95.771L28.231 168.944C27.991 234.242 28.134 242.479 29.558 245.481C32.795 252.303 27.577 251.969 131.305 251.979C214.881 251.987 225.037 251.821 226.435 250.422C227.816 249.041 228 242.604 227.996 195.679C227.993 144.786 227.909 142.363 226.05 139.314C224.981 137.561 223.183 135.633 222.054 135.029C220.053 133.958 220 133.162 220 104.465V75H228.378C234.462 75 237.083 74.605 237.954 73.555C241.314 69.507 240.355 68.841 183.683 35.881C153.533 18.346 128.333 4.03797 127.683 4.08397C127.032 4.12997 117.349 9.52997 106.165 16.084ZM83.268 39.69C39.518 65.116 39.069 65.41 42.018 66.65L45 67.903V78.452V89H80.032C118.239 89 120.148 89.246 123.672 94.62C125.237 97.007 125.55 100.047 125.847 115.774C126.144 131.515 126.405 134.058 127.678 133.57C128.495 133.256 147.577 133 170.082 133H211V100.452V67.903L213.979 66.651C216.924 65.413 216.479 65.121 173.696 40.251C149.902 26.42 129.774 14.852 128.967 14.544C128.12 14.221 108.801 24.851 83.268 39.69ZM66 32.5C66 36.075 66.257 39 66.572 39C66.886 39 69.136 37.832 71.572 36.405C75.61 34.038 76 33.466 76 29.905V26H71H66V32.5ZM37.667 98.667C37.3 99.033 37 109.608 37 122.167V145H77H117V122.7C117 106.689 116.662 100.062 115.8 99.2C114.909 98.309 104.793 98 76.467 98C55.493 98 38.033 98.3 37.667 98.667ZM40.714 112.619C40.321 113.012 40 118.672 40 125.198C40 138.056 40.367 138.878 45.533 137.581L48.061 136.947L47.781 124.723L47.5 112.5L44.464 112.203C42.794 112.039 41.107 112.227 40.714 112.619ZM127.25 142.662C126.419 142.998 126 145.486 126 150.083V157H172.5H219V150.7C219 147.133 218.479 143.879 217.8 143.2C216.901 142.301 205.568 142.02 172.55 142.079C148.322 142.122 127.938 142.385 127.25 142.662ZM159.496 147.004C157.998 148.66 157.88 149.442 158.82 151.504C159.939 153.96 160.145 154 171.779 154C183.92 154 186 153.396 186 149.871C186 145.917 183.381 145 172.084 145C162.573 145 161.097 145.235 159.496 147.004ZM195.565 146.928C193.31 149.42 194.327 152.793 197.58 153.609C202.159 154.759 204.795 149.938 201.429 146.571C199.345 144.488 197.682 144.589 195.565 146.928ZM206.571 146.571C203.205 149.938 205.841 154.759 210.42 153.609C213.673 152.793 214.69 149.42 212.435 146.928C210.318 144.589 208.655 144.488 206.571 146.571ZM37.24 197.75L37.5 242.5L75.883 242.762C103.383 242.95 114.654 242.702 115.633 241.89C116.751 240.962 117 232.761 117 196.878V153H76.99H36.979L37.24 197.75ZM41.089 161.393C40.324 162.314 40.029 166.6 40.216 174.036C40.454 183.468 40.783 185.465 42.25 186.388C43.524 187.19 44.476 187.19 45.75 186.388C47.217 185.465 47.546 183.468 47.784 174.036C48.078 162.381 47.436 160 44 160C43.035 160 41.725 160.627 41.089 161.393ZM126 204.5V243H172.5H219V204.5V166H172.5H126V204.5ZM162.324 172.38C142.974 178.705 133.139 200.517 141.424 218.734C144.718 225.978 151.711 233.059 158.783 236.311C162.443 237.994 165.409 238.483 172.021 238.49C179.644 238.499 181.246 238.154 187.218 235.213C199.431 229.201 206 218.634 206 205C206 186.338 192.502 172.14 174 171.34C169.485 171.145 164.838 171.559 162.324 172.38ZM161.195 182.59C142.276 192.018 142.483 218.24 161.551 227.569C166.344 229.914 167.936 230.202 173.788 229.783C181.31 229.245 185.299 227.548 189.933 222.914C195.126 217.72 197.357 212.355 197.383 205C197.448 186.201 178.052 174.19 161.195 182.59Z" fill="black"/>
</svg>
