<svg width="256" height="256" viewBox="0 0 256 256" fill="none" xmlns="http://www.w3.org/2000/svg">
<g clip-path="url(#clip0_2074_136)">
<path fill-rule="evenodd" clip-rule="evenodd" d="M63 1.42899C49.528 5.16999 36.87 15.405 31.056 27.257C23.359 42.948 23.374 58.22 31.103 73.898C35.126 82.057 36.487 83.549 79.023 126.398L122.803 170.5H128.007H133.21L177.001 126.362C219.476 83.55 220.916 81.972 224.915 73.862C235.045 53.312 231.458 30.696 215.512 14.572C205.748 4.69899 194.415 0.0599911 180 0.0359911C164.233 0.00999114 154.119 4.92699 138.798 20.066L128.096 30.641L120.298 22.75C103.546 5.79699 91.991 -0.0850088 75.785 0.0889912C71.228 0.138991 65.475 0.740991 63 1.42899ZM63.338 11.065C52.631 14.459 43.337 22.923 38.156 34C36.097 38.403 35.512 41.395 35.221 49C34.807 59.808 36.642 66.771 41.87 74.233C43.514 76.58 63.563 97.4 86.423 120.5L127.988 162.5L169.61 120.5C192.503 97.4 212.558 76.58 214.176 74.233C219.378 66.692 221.191 59.764 220.779 49C220.488 41.395 219.903 38.403 217.844 34C208.89 14.856 189.353 5.37099 169.518 10.537C161.028 12.749 157.919 14.928 144.491 28.079C137.885 34.55 131.298 40.138 129.849 40.502C125.856 41.504 122.572 39.241 111.07 27.566C105.334 21.744 98.737 15.864 96.411 14.501C86.988 8.97799 74.135 7.64299 63.338 11.065ZM111.374 64.451C110.234 65.249 108.005 69.299 106.42 73.451L103.538 81H93.469C82.884 81 81 81.68 81 85.5C81 89.444 82.795 90 95.526 90C109.162 90 110.377 89.429 113.081 81.75C113.808 79.688 114.661 78 114.978 78C115.296 78 117.061 82.064 118.902 87.031C122.29 96.174 123.851 98 128.279 98C131.658 98 133.511 95.513 135.728 88L137.647 81.5L139.334 84.72C140.262 86.492 141.886 88.404 142.945 88.97C145.733 90.463 172.284 90.316 173.8 88.8C175.343 87.257 175.343 83.743 173.8 82.2C172.997 81.397 168.537 81 160.314 81H148.029L145.019 75.038C141.72 68.502 139.342 66.625 135.562 67.574C132.14 68.433 131.158 69.884 129.132 77.067L127.376 83.293L124.115 74.652C119.987 63.715 116.458 60.89 111.374 64.451ZM50.071 137.752C44.21 140.74 42.546 144.045 42.151 153.477L41.803 161.808L32.824 162.154C23.901 162.498 23.823 162.523 20.422 166.235C17.258 169.689 17 170.462 17 176.485V183H11.934C2.43299 183 0.0749895 185.634 0.0319895 196.295C0.00298953 203.261 0.260989 204.352 2.45499 206.545C4.51899 208.61 5.86899 209 10.955 209H17L17.004 215.25C17.011 226.824 22.382 231.434 35.152 230.826L42.005 230.5L42.002 237.782C41.998 251.984 46.015 255.99 60.265 255.996C68.851 256 69.106 255.93 72.765 252.579L76.5 249.158L76.808 229.079L77.117 209H128H178.883L179.192 229.079L179.5 249.158L183.235 252.579C186.88 255.917 187.179 256 195.535 256C209.747 256 213.135 252.847 213.805 239L214.216 230.5L220.958 230.826C233.605 231.438 238.989 226.789 238.996 215.25L239 209H245.099C250.632 209 251.467 208.712 254.099 205.894C256.797 203.006 257 202.232 257 194.835C257 190.135 256.616 187.119 256.061 187.462C255.545 187.781 254.758 187.423 254.311 186.667C252.908 184.288 249.309 183 244.066 183H239V176.485C239 170.462 238.742 169.689 235.578 166.235C232.171 162.517 232.113 162.498 223.078 162.151L214 161.801L213.998 154.651C213.996 141.775 209.569 136.77 197.654 136.168C188.797 135.721 183.885 137.499 181.026 142.19C179.191 145.199 179.007 147.208 179.004 164.25L179 183H128H77L76.996 164.25C76.992 143.063 76.203 140.236 69.51 137.44C64.677 135.42 54.317 135.587 50.071 137.752ZM53.75 146.022C52.754 146.635 52 148.31 52 149.91C52 152.534 52.33 152.76 56.946 153.307C59.667 153.629 63.267 154.604 64.946 155.472L68 157.051L67.985 152.776C67.976 150.424 67.568 147.865 67.077 147.09C65.959 145.324 56.159 144.538 53.75 146.022ZM191 145.729C188.991 146.494 188.034 148.06 188.015 150.611C188.002 152.405 188.761 152.812 193.069 153.322C195.856 153.652 199.456 154.58 201.069 155.384L204 156.847V151.959C204 148.149 203.573 146.842 202.066 146.035C200.025 144.943 193.536 144.764 191 145.729ZM52.239 204.75L52.5 246.5L58.837 246.8C62.649 246.98 65.738 246.633 66.587 245.928C68.759 244.125 68.665 174.203 66.484 169.607C64.588 165.611 60.28 163 55.585 163H51.978L52.239 204.75ZM188 203.878C188 237.87 188.238 244.953 189.413 245.928C190.262 246.633 193.351 246.98 197.163 246.8L203.5 246.5L203.762 208.162L204.024 169.824L200.612 166.412C197.718 163.518 196.501 163 192.6 163H188V203.878ZM27.2 172.2C26.54 172.86 26 174.66 26 176.2C26 178.804 26.283 179 30.032 179C32.25 179 35.68 179.675 37.654 180.5C39.629 181.325 41.414 182 41.622 182C42.592 182 41.859 173.259 40.8 172.2C40.14 171.54 37.08 171 34 171C30.92 171 27.86 171.54 27.2 172.2ZM215.2 172.2C214.54 172.86 214 174.66 214 176.2C214 178.831 214.258 179 218.289 179C220.647 179 224.247 179.851 226.289 180.892L230 182.784V178.092C230 175.511 229.46 172.86 228.8 172.2C228.14 171.54 225.08 171 222 171C218.92 171 215.86 171.54 215.2 172.2ZM0.34899 196C0.34899 200.675 0.52199 202.588 0.73199 200.25C0.942989 197.912 0.942989 194.088 0.73199 191.75C0.52199 189.412 0.34899 191.325 0.34899 196ZM26.015 203.25C26.024 211.637 26.402 219.085 26.855 219.799C27.434 220.712 29.737 221.01 34.59 220.799L41.5 220.5L41.783 208.625C42.009 199.114 41.75 196.267 40.478 194.327C38.244 190.917 33.079 188.008 29.25 188.004L26 188L26.015 203.25ZM214.225 204.25L214.5 220.5L221.41 220.799C226.263 221.01 228.566 220.712 229.145 219.799C229.598 219.085 229.975 213.775 229.981 208C229.991 199.332 229.652 196.941 228.04 194.299C225.741 190.527 221.322 188 217.025 188H213.95L214.225 204.25ZM8.99999 196V200H13H17V196V192H13H8.99999V196ZM77 196V200H128H179V196V192H128H77V196ZM239 196V200H243H247V196V192H243H239V196Z" fill="black"/>
</g>
<defs>
<clipPath id="clip0_2074_136">
<rect width="256" height="256" fill="white"/>
</clipPath>
</defs>
</svg>
