<svg width="256" height="256" viewBox="0 0 256 256" fill="none" xmlns="http://www.w3.org/2000/svg">
<g clip-path="url(#clip0_2074_138)">
<g clip-path="url(#clip1_2074_138)">
<path fill-rule="evenodd" clip-rule="evenodd" d="M58.021 2.068C29.866 9.439 9.23903 30.192 2.02303 58.41C0.375026 64.853 2.57001e-05 69.528 2.57001e-05 83.625C2.57001e-05 103.713 -0.380974 103 10.354 103H16.839L18.58 108.24C20.956 115.394 29.548 124.025 36.639 126.38C41.232 127.906 41.933 128.535 43.447 132.501C47.594 143.36 61.937 143.959 67.007 133.485C69.024 129.319 69.092 127.932 68.802 96.781C68.468 60.924 68.5 61.105 61.696 56.956C54.937 52.835 47.24 55.879 43.231 64.258C41.983 66.866 40.277 69 39.441 69C37.576 69 30.139 72.672 27.75 74.771C26.142 76.185 26.001 76.115 26.015 73.905C26.023 72.582 26.709 68.617 27.54 65.093C33.775 38.643 60.605 21.559 87.201 27.105C107.198 31.275 124.531 49.701 126.844 69.25C127.283 72.962 127.585 76 127.516 76C127.446 76 125.881 74.888 124.039 73.529C122.197 72.17 118.509 70.333 115.845 69.448C112.633 68.382 110.999 67.277 110.996 66.17C110.985 61.089 103.772 55 97.767 55C94.051 55 88.795 58.393 86.827 62.062C85.163 65.165 85 68.415 85.004 98.484C85.007 129.466 85.128 131.697 86.96 134.701C89.267 138.485 93.681 141 98.016 141C103.74 141 109.614 136.573 110.557 131.549C111.053 128.902 111.878 128.158 115.888 126.733C125.494 123.322 132.983 115.831 135.245 107.373L136.415 103H143.636C154.509 103 154.311 103.42 153.739 81.572C153.196 60.789 152.176 55.927 145.542 42.5C135.397 21.966 117.751 7.691 95.468 1.992C84.991 -0.688 68.418 -0.654 58.021 2.068ZM128 4.5V9H185.045H242.091L244.545 11.455L247 13.909V128V242.091L244.545 244.545L242.091 247H197.545H153V251.5V256H198.032C233.803 256 243.736 255.719 246.329 254.636C249.991 253.106 254.963 247.724 255.07 245.173C255.127 243.835 255.309 243.9 255.981 245.5C256.846 247.558 256.282 18.053 255.408 12.279C254.792 8.212 250.571 3.136 246.329 1.364C243.7 0.266 231.861 0 185.532 0H128V4.5ZM62 10.551C43.127 14.593 25.219 28.629 16.564 46.164C10.85 57.74 9.04003 66.157 9.01703 81.25L9.00003 93H13H17V80.71C17 60.162 21.981 46.999 34.49 34.49C46.898 22.082 61.569 16.447 79.44 17.225C100.344 18.136 117.433 28.279 128.282 46.216C134.3 56.165 136.164 63.441 136.748 79.25L137.256 93H141.277H145.297L144.688 79.25C143.641 55.623 138.91 43.919 124.525 29.374C117.004 21.769 114.083 19.572 107 16.19C92.783 9.403 76.746 7.393 62 10.551ZM230 21.5V26H234.5H239V21.5V17H234.5H230V21.5ZM171.355 26.039C165.992 27.101 158.026 31.16 153.489 35.144L149.905 38.291L152.639 41.145C154.144 42.715 155.766 44 156.246 44C156.725 44 158.778 42.668 160.809 41.04C168.857 34.585 182.23 32.995 191.5 37.39C213.953 48.036 213.953 79.964 191.5 90.61C185.538 93.436 175.603 93.83 169 91.5C166.662 90.675 164.438 90 164.059 90C163.481 90 160 96.354 160 97.411C160 97.599 162.14 98.674 164.756 99.8C183.273 107.765 204.886 99.138 214.307 80.021C217.222 74.106 217.5 72.711 217.5 64C217.5 55.25 217.23 53.908 214.241 47.837C206.028 31.155 189.067 22.534 171.355 26.039ZM173.994 42.934C163.625 46.088 157.8 53.662 157.8 63.988C157.8 83.771 181.422 93.115 194.785 78.617C203.001 69.704 203.006 58.302 194.798 49.397C189.296 43.428 180.922 40.827 173.994 42.934ZM172.763 53.565C167.459 56.443 165.473 64.146 168.517 70.033C171.725 76.237 181.429 78.034 186.894 73.436C195.506 66.189 190.695 51.934 179.673 52.04C177.378 52.062 174.268 52.748 172.763 53.565ZM53.623 65.289C52.135 66.379 51.996 69.691 52.235 98.391C52.472 126.886 52.677 130.395 54.166 131.333C55.375 132.096 56.267 132.023 57.416 131.07C58.801 129.921 59 125.746 59 97.913C59 67.881 58.894 66.014 57.138 65.074C55.842 64.38 54.774 64.446 53.623 65.289ZM95.571 65.571C94.211 66.932 94 71.281 94 98C94 124.719 94.211 129.068 95.571 130.429C96.436 131.293 97.696 132 98.371 132C101.78 132 102 129.927 102 97.835C102 67.454 101.916 66.025 100.066 65.035C97.564 63.696 97.431 63.712 95.571 65.571ZM37.5 79.519C28.169 84.206 23.59 96.295 27.553 105.782C29.955 111.531 37.048 118 40.95 118C41.648 118 42 111.297 42 98C42 87 41.663 78.003 41.25 78.006C40.837 78.01 39.15 78.69 37.5 79.519ZM111 98C111 120.758 110.973 120.7 118.823 115.013C130.721 106.394 130.082 87.821 117.636 80.527C115.264 79.137 112.801 78 112.162 78C111.318 78 111 83.473 111 98ZM164.788 116.491C148.743 120.551 132.322 133.779 125.533 148.113C123.609 152.176 121.755 156.915 121.413 158.645C120.81 161.698 120.915 161.81 125.02 162.503C129.297 163.226 130.948 162.318 130.985 159.221C131.021 156.222 137.354 145.732 142.455 140.222C152.366 129.517 168.3 123.207 182.5 124.364C200.937 125.865 216.915 136.545 224.433 152.391C234.404 173.407 230.864 194.337 214.592 210.58C198.85 226.294 178.031 229.921 156.951 220.623C155.834 220.131 154.766 221.071 153.124 223.992L150.847 228.045L155.269 230.001C167.046 235.21 184.412 236.301 196.28 232.578C214.797 226.767 229.731 212.292 236.08 194C239.135 185.198 239.836 169.852 237.59 160.94C232.589 141.1 217.354 124.396 198.5 118.079C189.622 115.105 173.305 114.336 164.788 116.491ZM168.618 133.112C157.784 135.656 145.064 146.137 140.542 156.247C136.33 165.664 136.335 165.744 141.204 166.766C146.112 167.797 146.996 167.557 147.009 165.191C147.025 162.361 152.615 153.546 156.626 150.023C169.727 138.521 188.806 138.572 201.467 150.144C204.708 153.106 208.043 157.423 209.706 160.81C212.129 165.744 212.49 167.63 212.425 175C212.334 185.274 210.213 190.719 203.516 197.879C191.991 210.2 173.032 211.991 159.106 202.075L156.3 200.077L153.65 202.843C152.192 204.365 151 206.086 151 206.669C151 208.27 158.071 212.839 164.083 215.123C179.277 220.897 196.139 217.478 208.268 206.166C217.422 197.629 222 187.279 222 175.121C222 150.754 202.841 131.817 178.5 132.125C175.2 132.167 170.753 132.611 168.618 133.112ZM47.585 151.25C46.782 152.488 44.676 157.213 42.906 161.75L39.687 170H25.311C9.77503 170 5.54703 170.954 2.63103 175.117C1.19503 177.167 1.00403 181.75 1.03203 213.473C1.06603 251.654 0.968026 250.847 5.97303 254.296C8.23903 255.858 13.776 256 72.318 256C129.652 256 136.475 255.833 138.96 254.364C144.941 250.832 145 250.425 144.996 213.346C144.993 181.162 144.893 179.337 142.974 176.19C139.804 170.99 136.079 170 119.689 170H105.313L102.094 161.75C96.606 147.681 99.668 149 72.5 149C49.277 149 49.032 149.022 47.585 151.25ZM50.53 167.75C48.436 173.113 46.314 177.95 45.814 178.5C45.309 179.056 37.046 179.722 27.203 180L9.50003 180.5L9.23603 212.38C9.04803 235.072 9.29903 244.656 10.108 245.63C11.799 247.667 133.201 247.667 134.892 245.63C135.701 244.656 135.952 235.072 135.764 212.38L135.5 180.5L117.712 180C103.377 179.597 99.739 179.209 98.974 178C98.452 177.175 96.368 172.338 94.344 167.25L90.662 158H72.5H54.338L50.53 167.75ZM61.781 180.939C54.266 183.876 49.444 188.353 45.785 195.787C42.975 201.498 42.511 203.476 42.578 209.481C42.705 220.79 48.234 230.044 58.144 235.534C62.969 238.206 64.393 238.5 72.5 238.5C80.628 238.5 82.025 238.209 86.922 235.5C92.901 232.192 99.115 225.098 101.145 219.264C103.3 213.068 102.734 202.314 99.945 196.5C93.091 182.206 76.178 175.31 61.781 180.939ZM21 192V197H25.5H30V192V187H25.5H21V192ZM111 192V197H119.5H128V192V187H119.5H111V192ZM65.615 189.415C60.654 191.256 54.357 197.388 52.903 201.794C51.098 207.263 52.196 216.187 55.24 220.787C58.465 225.66 66.595 230 72.5 230C78.456 230 86.534 225.662 89.817 220.7C92.141 217.188 92.5 215.622 92.5 208.988C92.5 202.252 92.167 200.848 89.736 197.341C84.544 189.848 73.885 186.346 65.615 189.415ZM119 234.5V239H123.5H128V234.5V230H123.5H119V234.5ZM230 234.5V239H234.5H239V234.5V230H234.5H230V234.5Z" fill="black"/>
</g>
</g>
<defs>
<clipPath id="clip0_2074_138">
<rect width="256" height="256" fill="white"/>
</clipPath>
<clipPath id="clip1_2074_138">
<rect width="256" height="256" fill="white"/>
</clipPath>
</defs>
</svg>
