<svg width="256" height="256" viewBox="0 0 256 256" fill="none" xmlns="http://www.w3.org/2000/svg">
<g clip-path="url(#clip0_2074_140)">
<path fill-rule="evenodd" clip-rule="evenodd" d="M85.619 4.10797C81.566 5.21797 78.137 8.75497 77.422 12.563C76.661 16.618 79.162 22.214 82.545 24.024C84.903 25.286 85 25.738 85 35.426C85 40.974 85.437 47.038 85.972 48.902C86.548 50.91 89.807 55.244 93.972 59.539C100.551 66.324 101 67.073 101 71.266C101 75.68 100.945 75.753 97.192 76.353C93.182 76.995 89.69 79.982 88.548 83.75C87.933 85.777 87.233 86 81.489 86C73.577 86 72 84.33 72 75.946C72 70.938 72.277 70.19 74.585 68.954C77.618 67.331 80 63.172 80 59.5C80 53.72 74.529 48 69 48C66.065 48 61.415 50.57 59.561 53.217C56.29 57.886 58.984 67.908 63.931 69.478C65.722 70.046 66 70.946 66 76.166C66 87.635 70.247 92 81.404 92C87.773 92 88 92.086 88 94.5V97H67.155C42.762 97 43.543 97.328 42.742 86.75C42.449 82.888 41.506 78.895 40.537 77.417C38.313 74.023 33.263 72 27.011 72C22.686 72 21.804 71.663 20.893 69.665C20.308 68.381 18.561 66.581 17.01 65.665C5.534 58.886 -6.069 74.874 4.111 83.44C9.252 87.766 17.895 86.301 20.954 80.585C22.142 78.365 23.005 78 27.058 78C34.409 78 36.164 80.016 36.926 89.334C37.465 95.917 37.944 97.399 40.298 99.754L43.041 102.5L65.521 102.803L88 103.106V107.553V112H73.107C60.276 112 58.128 112.225 57.59 113.627C56.17 117.328 58.634 118 73.622 118H88V120.98V123.96L66.858 124.23C47.708 124.475 45.612 124.67 44.608 126.309C43.721 127.756 43.887 128.405 45.441 129.559C46.982 130.703 51.57 131 67.691 131H88V134V137H73.622C62.062 137 59.001 137.294 58 138.5C57.007 139.697 57.007 140.303 58 141.5C59.001 142.706 62.062 143 73.622 143H88V147V151L69.25 151.056C48.053 151.12 44.698 151.821 41.285 156.898C39.062 160.203 39 160.953 39 184.398V208.5L35.544 211.258C27.124 217.976 31.938 230.984 42.85 230.996C45.329 230.999 47.084 230.116 49.6 227.6C52.437 224.763 52.996 223.479 52.978 219.85C52.954 215.224 51.093 212.05 47.25 210.082C45.012 208.936 45 208.803 45 185.12C45 162.194 45.078 161.239 47.102 159.405C48.99 157.695 51.187 157.468 68.602 157.191L88 156.881V159.824V162.767L78.25 163.184C63.422 163.818 62 165.388 62 181.124C62 190.914 62.071 191.225 64.972 194.125C67.725 196.879 68.404 197.075 74.222 196.798C80.172 196.516 80.5 196.37 80.5 194C80.5 191.694 80.098 191.477 75.331 191.201C72.489 191.036 69.658 190.293 69.041 189.549C68.345 188.711 68.029 184.841 68.21 179.349L68.5 170.5L78.114 170.215L87.729 169.931L89.035 173.084C90.482 176.577 95.279 179.99 98.75 179.996C100.989 180 101 180.079 101 195.893C101 209.463 100.769 211.875 99.418 212.393C98.548 212.727 93.789 213 88.841 213C80.204 213 79.728 213.118 76.882 215.964C74.012 218.834 73.927 219.191 74.209 227.214C74.493 235.308 74.558 235.5 77 235.5C79.398 235.5 79.512 235.217 79.8 228.542C79.966 224.715 80.583 221.002 81.173 220.292C81.909 219.404 85.176 219 91.607 219C100.536 219 101.119 218.865 104.234 216.084L107.5 213.167L107.836 196.584L108.172 180H110.586C112.978 180 113 180.093 113 190.031C113 198.063 113.302 200.178 114.513 200.643C117.884 201.937 119 199.134 119 189.378C119 180.069 119.018 180 121.473 180H123.947L124.223 194.75L124.5 209.5L127.25 209.816L130 210.133V195.066V180H133.5H137V201.393C137 220.227 137.195 222.861 138.627 223.41C142.567 224.922 143 222.69 143 200.878V180H146H149V193.418C149 200.798 149.273 207.548 149.607 208.418C149.941 209.288 151.291 210 152.607 210H155V195C155 180.667 155.089 180 157 180C158.865 180 159 180.667 159 189.878C159 200.151 160.069 202.955 163.487 201.643C164.705 201.176 165 199.01 165 190.531C165 180.667 165.127 180 167 180C168.907 180 169 180.667 169 194.345C169 207.758 168.861 208.814 166.854 210.595C161.485 215.36 159 220.13 159 225.671C159 230.472 158.726 231.168 156.425 232.216C150.624 234.859 149.182 243.934 153.75 249.046C158.934 254.847 169.395 253.353 172.025 246.434C174.022 241.182 173.234 237.913 169 233.885C165.614 230.664 165 229.456 165 226.018C165 222.7 165.708 221.18 168.858 217.728C174.805 211.21 175 210.477 175 194.566V180H178.599C183.862 180 188.592 177.379 190.47 173.423C191.857 170.5 192.598 170 195.547 170H199V192.878C199 211.906 199.25 215.963 200.487 216.989C201.305 217.668 202.655 217.963 203.487 217.643C204.785 217.145 205 213.304 205 190.648V164.233L202.75 163.63C201.512 163.299 198.588 163.021 196.25 163.014C192.197 163.001 192 162.861 192 160V157H201.971H211.942L212.221 170.25L212.5 183.5L230.75 183.773L249 184.045V181.63C249 180.301 248.288 178.941 247.418 178.607C246.548 178.273 239.573 178 231.918 178H218V165.7C218 157.467 217.603 153.003 216.8 152.2C216.002 151.402 211.644 151 203.8 151H192V147.027V143.053L206.75 142.777L221.5 142.5V140V137.5L206.75 137.223L192 136.947V133.973V131H210.9H229.8L233.3 134.5C236.268 137.468 237.487 138 241.323 138C245.041 138 246.394 137.452 248.923 134.923C251.452 132.394 252 131.041 252 127.323C252 123.513 251.464 122.264 248.6 119.4C246.084 116.884 244.329 116.001 241.85 116.004C237.798 116.008 232.423 119.093 231.522 121.931C230.888 123.929 230.203 124 211.433 124H192V121.027V118.053L206.75 117.777L221.5 117.5V115V112.5L206.75 112.223L192 111.947V107.494V103.041L212.25 102.771L232.5 102.5L232.794 95.25L233.088 88H242.61C252.331 88 256 87.041 256 84.5C256 81.886 252.238 81 241.137 81C227.613 81 227 81.415 227 90.571V97H209.5H192V94.53V92.06L204.75 91.78L217.5 91.5L217.771 71.128C217.96 56.945 217.695 50.337 216.899 49.378C216.187 48.52 213.726 48 210.378 48H205V35.969C205 26.152 204.722 23.83 203.487 23.357C202.655 23.037 201.305 23.332 200.487 24.011C199.313 24.985 199 27.935 199 38.041C199 45.078 199.273 51.548 199.607 52.418C200.065 53.613 201.656 54 206.107 54H212V70V86H202.121H192.243L190.951 82.882C189.25 78.775 184.544 76.008 179.25 76.004L175 76V68.5V61L182.75 60.985C187.012 60.976 191.071 60.607 191.77 60.163C192.747 59.543 192.978 54.307 192.77 37.442C192.517 16.903 192.382 15.503 190.62 15.165C189.586 14.966 188.355 15.41 187.885 16.152C187.415 16.893 187.024 25.92 187.015 36.211L187 54.922L178.25 55.211L169.5 55.5L169.215 65.75C168.953 75.176 168.772 76 166.965 76C165.081 76 165 75.221 165 57.055V38.11L169.75 37.805L174.5 37.5L174.774 20.728C175.009 6.39297 174.825 3.86997 173.512 3.36597C172.666 3.04197 171.305 3.33197 170.487 4.01097C169.307 4.98997 169 8.00197 169 18.622V32H165.2C163.11 32 160.86 32.54 160.2 33.2C159.344 34.056 159 40.356 159 55.2C159 75.333 158.936 76 157 76C155.089 76 155 75.333 155 60.969C155 47.942 154.781 45.853 153.355 45.306C149.942 43.996 149 47.646 149 62.191V76H146H143L142.985 55.25C142.976 43.837 142.585 33.893 142.115 33.152C141.645 32.41 140.414 31.966 139.38 32.165C137.619 32.503 137.483 33.899 137.23 54.263L136.961 76H133.48H130V61.107C130 48.276 129.775 46.128 128.373 45.59C124.672 44.17 124 46.634 124 61.622V76H121.5H119L118.985 49.25C118.976 34.538 118.585 21.893 118.115 21.152C117.645 20.41 116.414 19.966 115.38 20.165C113.602 20.507 113.486 22.025 113.234 48.263L112.968 76H110.613C108.531 76 108.178 75.399 107.571 70.827C106.677 64.081 105.917 62.784 98.112 54.685L91.546 47.869L91.157 37.379L90.769 26.89L94.753 23.48C99.362 19.534 100.616 15.41 98.642 10.688C96.367 5.24397 91.132 2.59897 85.619 4.10797ZM85.427 10.765C80.424 14.191 85.59 21.895 90.962 19.02C93.254 17.794 93.751 13.151 91.8 11.2C90.465 9.86497 87.079 9.63397 85.427 10.765ZM66.223 55.557C62.089 58.452 63.914 64 69 64C72.194 64 74 62.322 74 59.357C74 57.45 70.78 54 69 54C68.695 54 67.445 54.701 66.223 55.557ZM7.536 71.96C5.068 74.687 6.201 78.761 9.67 79.632C13.148 80.505 15.422 78.962 15.836 75.448C16.418 70.506 10.937 68.202 7.536 71.96ZM95.655 83.829C94.17 85.47 94 90.022 94 128.272V170.887L96.223 172.443C98.148 173.792 104.029 174 140.223 174C180.667 174 182.064 173.936 184 172C185.936 170.064 186 168.667 186 128.223C186 92.029 185.792 86.148 184.443 84.223L182.887 82H140.098C99.916 82 97.209 82.111 95.655 83.829ZM105.571 93.571C104.206 94.937 104.002 99.433 104.015 127.821C104.024 145.795 104.392 161.069 104.833 161.763C105.459 162.75 113.186 162.969 140.067 162.763L174.5 162.5L174.763 128.067C174.969 101.186 174.75 93.459 173.763 92.833C173.069 92.392 157.795 92.024 139.821 92.015C111.433 92.002 106.937 92.206 105.571 93.571ZM111 128V157H140H169V128V99H140H111V128ZM237.536 123.96C235.068 126.687 236.201 130.761 239.67 131.632C243.148 132.505 245.422 130.962 245.836 127.448C246.418 122.506 240.937 120.202 237.536 123.96ZM38.571 216.571C36.427 218.716 36.599 221.327 39.03 223.527C43.399 227.481 49.731 220.995 45.95 216.44C44.372 214.538 40.536 214.606 38.571 216.571ZM158.05 238.44C155.927 240.998 157.177 245.35 160.355 246.461C162.809 247.32 163.475 247.131 165.105 245.119C167.411 242.27 167.492 240.635 165.429 238.571C163.464 236.606 159.628 236.538 158.05 238.44Z" fill="black"/>
</g>
<defs>
<clipPath id="clip0_2074_140">
<rect width="256" height="256" fill="white"/>
</clipPath>
</defs>
</svg>
