<svg width="256" height="256" viewBox="0 0 256 256" fill="none" xmlns="http://www.w3.org/2000/svg">
<g clip-path="url(#clip0_2074_142)">
<path fill-rule="evenodd" clip-rule="evenodd" d="M102.5 1.66198C98.081 3.99098 95.072 7.00098 92.666 11.5C90.718 15.142 90.495 17.349 90.177 36.151L89.828 56.802L73.164 57.151C57.005 57.489 56.355 57.585 51.728 60.305C49.103 61.848 45.728 64.964 44.228 67.229L41.5 71.347L41.18 93.174L40.86 115L29.68 115.006C23.531 115.009 16.8 115.483 14.723 116.06C9.99303 117.373 4.47703 122.145 1.94103 127.115C0.0890344 130.746 0.0010344 133.424 0.0220344 185.71C0.0420344 236.84 0.167034 240.767 1.89003 244.5C4.12403 249.341 7.29003 252.388 12.232 254.452C15.45 255.797 24.731 256 83.008 256C146.97 256 150.252 255.912 153.79 254.097C158.116 251.879 161.031 248.886 163.623 244C165.222 240.987 165.529 237.612 165.828 219.75L166.175 199H176.406C188.358 199 195.149 197.3 199.646 193.183C206.094 187.279 206.467 185.672 206.821 162.25L207.142 141H222.445C243.182 141 248.957 138.772 254.092 128.79C255.901 125.272 256 122.244 256 70.508C256 23.514 255.785 15.421 254.452 12.232C252.388 7.28998 249.341 4.12398 244.5 1.88998C240.735 0.151981 236.535 0.0449811 173 0.0619811C113.407 0.0779811 105.149 0.264981 102.5 1.66198ZM103.4 12.4L100 15.8V36.4V57H132.5H165V36.5V16H202.5H240V56.599C240 91.595 239.781 97.659 238.414 100.54C233.278 111.364 217.133 108.986 214.504 97.02C213.034 90.325 220.985 81.444 227.75 82.224L231 82.598V62.299V42H202.5H174V49.5V57H180.318C192.155 57 200.244 61.023 204.646 69.099C206.312 72.155 206.531 75.527 206.805 102.335L207.111 132.17L223.634 131.835L240.157 131.5L243.579 127.765L247 124.029V69.915V15.8L243.6 12.4L240.2 8.99998H173.5H106.8L103.4 12.4ZM107 20.5V25H132H157V20.5V16H132H107V20.5ZM174 29V33H202.5H231V29V25H202.5H174V29ZM107 37.5V42H132H157V37.5V33H132H107V37.5ZM59.256 66.957C55.306 67.916 53.318 69.485 51.434 73.128C50.242 75.432 50.001 84.731 50.004 128.2C50.007 178.223 50.092 180.639 51.95 183.686C55.643 189.743 52.633 189.5 124 189.5C187.339 189.5 189.595 189.436 192.386 187.546C197.984 183.755 198 183.588 198 128C198 72.412 197.984 72.245 192.386 68.454C189.604 66.571 187.208 66.494 126 66.335C91.075 66.244 61.04 66.524 59.256 66.957ZM60.306 76.412L57.5 78.823L57.171 97.412L56.841 116H61.421H66V99.5V83H74.5H83V78.5V74H73.056C63.988 74 62.864 74.213 60.306 76.412ZM90 128C90 150 90.224 168 90.497 168C91.487 168 170 128.498 170 128C170 127.502 91.487 88 90.497 88C90.224 88 90 106 90 128ZM224.571 92.571C223.707 93.436 223 94.529 223 95C223 95.471 223.707 96.564 224.571 97.429C225.436 98.293 226.529 99 227 99C228.353 99 231 95.999 231 94.464C231 93.697 230.13 92.605 229.066 92.035C226.564 90.696 226.431 90.712 224.571 92.571ZM100 128C100 141.75 100.223 153 100.495 153C101.49 153 150 128.503 150 128C150 127.497 101.49 103 100.495 103C100.223 103 100 114.25 100 128ZM57.398 124.405C57.102 125.177 57.003 127.315 57.18 129.155C57.482 132.316 57.734 132.517 61.75 132.807L66 133.115V128.057V123H61.969C59.429 123 57.738 123.52 57.398 124.405ZM16.418 124.969C15.274 125.432 13.136 127.238 11.668 128.982L9.00003 132.153V186.177V240.2L12.4 243.6L15.8 247H82.5H149.2L152.6 243.6L156 240.2V219.644V199.087L106.25 198.794L56.5 198.5L51.728 195.695C49.103 194.152 45.728 191.036 44.228 188.77L41.5 184.651L41.196 154.326L40.892 124L29.696 124.063C23.538 124.098 17.563 124.506 16.418 124.969ZM181 136.5V141H185.5H190V136.5V132H185.5H181V136.5ZM16 144.5V149H20.5H25V144.5V140H20.5H16V144.5ZM57 144.5V149H61.5H66V144.5V140H61.5H57V144.5ZM181 152.5V157H185.5H190V152.5V148H185.5H181V152.5ZM16.422 157.344C16.112 158.15 16.003 160.315 16.18 162.155C16.483 165.324 16.726 165.516 20.807 165.81L25.115 166.121L24.807 161.31C24.502 156.535 24.473 156.498 20.742 156.189C18.145 155.974 16.81 156.331 16.422 157.344ZM181 169.5V174H185.5H190V169.5V165H185.5H181V169.5ZM16 177.5V182H20.5H25V177.5V173H20.5H16V177.5ZM37 218.5V223H26.5H16V227.5V232H26.5H37V236V240H49.5H62V236V232H105.5H149V227.5V223H105.5H62V218.5V214H49.5H37V218.5ZM46 227C46 230.905 46.083 231 49.5 231C52.917 231 53 230.905 53 227C53 223.095 52.917 223 49.5 223C46.083 223 46 223.095 46 227Z" fill="black"/>
</g>
<defs>
<clipPath id="clip0_2074_142">
<rect width="256" height="256" fill="white"/>
</clipPath>
</defs>
</svg>
