<svg width="256" height="256" viewBox="0 0 256 256" fill="none" xmlns="http://www.w3.org/2000/svg">
<g clip-path="url(#clip0_2074_144)">
<path fill-rule="evenodd" clip-rule="evenodd" d="M19.235 47.996C18.056 49.094 16.827 51.456 16.504 53.246C16.18 55.036 16.047 86.501 16.208 123.17L16.5 189.84L18.924 192.42L21.349 195H128H234.651L237.076 192.42L239.5 189.84L239.792 123.17C239.953 86.501 239.82 55.036 239.496 53.246C239.173 51.456 237.944 49.094 236.765 47.996C234.652 46.027 233.17 46 128 46C22.83 46 21.348 46.027 19.235 47.996ZM24 120.5V188H128H232V120.5V53H128H24V120.5ZM0.195015 204.75L0.500015 209.5L127.393 209.754C220.338 209.94 254.649 209.706 255.643 208.881C256.389 208.262 257 205.898 257 203.628V199.5L204.108 199.767C158.812 199.996 151.04 200.247 149.986 201.517C148.15 203.729 107.837 203.714 106 201.5C104.922 200.202 97.709 200 52.323 200H-0.109985L0.195015 204.75ZM0.286015 204.5C0.294015 207.25 0.488015 208.256 0.718015 206.736C0.947015 205.216 0.941015 202.966 0.704015 201.736C0.467015 200.506 0.279015 201.75 0.286015 204.5Z" fill="black"/>
</g>
<defs>
<clipPath id="clip0_2074_144">
<rect width="256" height="256" fill="white"/>
</clipPath>
</defs>
</svg>
