<svg width="256" height="256" viewBox="0 0 256 256" fill="none" xmlns="http://www.w3.org/2000/svg">
<path fill-rule="evenodd" clip-rule="evenodd" d="M83.5 13.207C78.746 14.868 74.149 18.787 71.991 23.018C70.042 26.838 70 29.05 70 128C70 226.95 70.042 229.162 71.991 232.982C74.221 237.353 78.805 241.156 83.899 242.862C88.634 244.447 167.366 244.447 172.101 242.862C177.195 241.156 181.779 237.353 184.009 232.982C185.958 229.162 186 226.95 186 128C186 29.05 185.958 26.838 184.009 23.018C181.779 18.647 177.195 14.844 172.101 13.138C167.607 11.634 87.823 11.695 83.5 13.207ZM81.766 23.918L78.5 26.836V128V229.164L81.766 232.082L85.032 235H128H170.968L174.234 232.082L177.5 229.164V128V26.836L174.234 23.918C171.242 21.245 170.34 21 163.484 21H156V24.943C156 31.764 155.065 32 128 32C100.935 32 100 31.764 100 24.943V21H92.516C85.66 21 84.758 21.245 81.766 23.918ZM120 25C120 25.583 123.333 26 128 26C132.667 26 136 25.583 136 25C136 24.417 132.667 24 128 24C123.333 24 120 24.417 120 25ZM139 25.059C139 25.641 139.45 25.84 140 25.5C140.55 25.16 141 24.684 141 24.441C141 24.198 140.55 24 140 24C139.45 24 139 24.477 139 25.059Z" fill="black"/>
</svg>
