<svg width="256" height="256" viewBox="0 0 256 256" fill="none" xmlns="http://www.w3.org/2000/svg">
<path fill-rule="evenodd" clip-rule="evenodd" d="M59.754 9.084C52.975 10.682 43.713 16.127 37.92 21.92C27.967 31.873 23.465 43.878 24.137 58.674L24.503 66.744L16.38 71.365C11.913 73.906 7.69899 76.658 7.01699 77.48C5.22999 79.633 6.20399 82.222 13.233 94C20.151 105.591 21.519 106.483 27.136 103.058C28.986 101.93 30.837 101.006 31.25 101.004C31.663 101.002 32 125.061 32 154.468V207.937L20.25 208.218L8.49999 208.5V224V239.5L96.19 239.755L183.88 240.011L184.19 243.755C184.484 247.309 184.678 247.5 188 247.5H191.5L191.792 240.893C192.075 234.501 191.954 234.121 188.044 229.175L184.004 224.063L195.752 223.782L207.5 223.5L207.795 220.497C208.03 218.102 207.27 216.693 204.045 213.544C199.443 209.05 199.203 207.927 202.008 203.989C204.417 200.606 205.466 195.993 204.606 192.567C204.26 191.188 200.607 186.456 196.488 182.052C189.062 174.111 187.813 171.412 189.986 168C190.756 166.792 192.866 168.415 200.838 176.349C211.157 186.619 212.961 187.461 215.718 183.301C217.085 181.24 216.889 180.796 212.588 176.198C208.13 171.431 208 171.112 208 164.915V158.538L218.071 168.519C223.61 174.008 228.897 179.85 229.821 181.5C231.261 184.073 231.571 188.987 232 216L232.5 247.5H236H239.5L239.764 215.621L240.028 183.742L237.555 178.34C236.195 175.369 232.589 170.323 229.541 167.128L224 161.319V131.16C224 114.572 224.338 101.002 224.75 101.004C225.162 101.006 227.014 101.93 228.864 103.058C234.481 106.483 235.849 105.591 242.767 94C250.275 81.418 250.926 79.451 248.381 77.023C245.338 74.119 130.062 8 128.042 8C127.028 8 121.429 10.737 115.599 14.082L104.999 20.164L98.899 16.092C90.563 10.525 81.864 7.974 71.645 8.1C67.165 8.156 61.814 8.598 59.754 9.084ZM65.226 17.112C49.194 19.782 35.686 33.689 33.04 50.248C31.082 62.506 35.017 74.312 44.171 83.64C62.86 102.687 94.888 97.702 107.045 73.855C119.062 50.282 104.843 21.941 78.566 17.094C75.303 16.493 72.153 16.053 71.566 16.117C70.98 16.181 68.127 16.629 65.226 17.112ZM121.5 20.701C118.2 22.649 114.501 24.866 113.279 25.626L111.058 27.008L114.279 33.254C116.051 36.689 117.61 39.685 117.745 39.912C117.88 40.138 120.231 39.104 122.97 37.613C127.2 35.31 128.292 35.082 130.225 36.093C131.476 36.747 154.61 50.044 181.634 65.641C208.658 81.239 231.173 94 231.666 94C232.16 94 234.2 91.226 236.2 87.835L239.836 81.67L183.852 49.335C153.061 31.551 127.785 17.035 127.684 17.079C127.583 17.122 124.8 18.752 121.5 20.701ZM58.487 33.744C47.441 37.684 38.237 45.021 39.469 48.904C40.686 52.737 44.274 52.519 49.884 48.273C56.72 43.098 63.691 40.706 71.929 40.706C80.402 40.706 87.099 42.943 93.77 48.003C96.669 50.201 99.674 52 100.449 52C102.015 52 105 49.353 105 47.963C105 45.56 98.007 39.618 91.243 36.275C84.24 32.814 82.938 32.517 73.591 32.247C65.861 32.024 62.327 32.374 58.487 33.744ZM63 44.877C53.92 47.859 47.386 53.418 48.367 57.325C49.321 61.128 52.271 61.168 57.501 57.449C66.725 50.891 76.918 50.947 86.679 57.611C91.027 60.578 92.191 60.968 93.929 60.038C98.663 57.504 95.044 51.525 86 46.937C81.149 44.477 67.847 43.285 63 44.877ZM123.75 47.22L120 49.393V56.591C120 68.264 115.13 80.691 107.149 89.386C102.926 93.986 93.188 99.862 86.217 102.015C73.608 105.909 57.61 103.949 46.986 97.207C44.503 95.632 41.915 94.528 41.236 94.755C40.274 95.075 40 107.689 40 151.583V208H47.989H55.979L56.239 164.25L56.5 120.5H88H119.5L119.761 164.25L120.021 208H124.011H128V155.4V102.8L131.4 99.4L134.8 96H168.032H201.264L204.632 99.571L208 103.142V124.368V145.594L212 149.5L216 153.406L215.981 124.453L215.962 95.5L172.155 70.25C148.06 56.362 128.156 45.01 127.923 45.023C127.691 45.036 125.813 46.024 123.75 47.22ZM63.209 57.668C61.398 58.56 59.028 60.42 57.941 61.802C56.204 64.01 56.133 64.568 57.352 66.407C59.271 69.303 61.536 69.51 64.634 67.073C68.192 64.275 75.76 64.237 79.273 67C82.764 69.746 85.79 69.556 87.18 66.504C88.127 64.425 87.998 63.655 86.409 61.898C81.335 56.288 70.147 54.248 63.209 57.668ZM66.174 70.314C61.208 75.601 64.87 84 72.14 84C76.756 84 80 80.64 80 75.86C80 68.76 71.019 65.157 66.174 70.314ZM21.817 78.362L16.202 81.544L19.707 87.522C21.634 90.81 23.416 93.715 23.667 93.977C23.917 94.24 26.569 93.131 29.561 91.512C34.79 88.684 36.15 86.829 33.979 85.487C33.418 85.14 31.715 82.679 30.195 80.018L27.432 75.179L21.817 78.362ZM137.571 105.571C136.469 106.674 136 109.061 136 113.571V120H168H200V113.571C200 103.511 201.634 104 168 104C143.1 104 138.927 104.215 137.571 105.571ZM160.406 109.383C160.096 110.192 159.99 111.9 160.171 113.177C160.482 115.372 160.914 115.5 168 115.5H175.5V112V108.5L168.236 108.206C162.568 107.976 160.847 108.235 160.406 109.383ZM64 168V208H88H112V168V128H88H64V168ZM136 160V192H164.608H193.215L187.64 185.978C180.985 178.79 179.17 173.753 180.997 167.54C183.686 158.393 191.396 155.131 197.195 160.687L200 163.374V145.687V128H168H136V160ZM144.44 137.296C144.151 138.05 144.046 142.455 144.207 147.084L144.5 155.5H154H163.5V146V136.5L154.233 136.212C147.103 135.991 144.845 136.241 144.44 137.296ZM172.44 137.296C172.151 138.05 172.046 142.455 172.207 147.084L172.5 155.5H182H191.5V146V136.5L182.233 136.212C175.103 135.991 172.845 136.241 172.44 137.296ZM152 146C152 147.333 152.667 148 154 148C155.333 148 156 147.333 156 146C156 144.667 155.333 144 154 144C152.667 144 152 144.667 152 146ZM180 146C180 147.333 180.667 148 182 148C183.333 148 184 147.333 184 146C184 144.667 183.333 144 182 144C180.667 144 180 144.667 180 146ZM96.41 165.375C96.097 166.189 95.99 167.9 96.171 169.177C96.47 171.286 97.006 171.5 102 171.5H107.5V168V164.5L102.239 164.197C98.312 163.971 96.834 164.27 96.41 165.375ZM144.44 165.296C144.151 166.05 144.046 170.455 144.207 175.084L144.5 183.5H154H163.5V174V164.5L154.233 164.212C147.103 163.991 144.845 164.241 144.44 165.296ZM152 174C152 175.333 152.667 176 154 176C155.333 176 156 175.333 156 174C156 172.667 155.333 172 154 172C152.667 172 152 172.667 152 174ZM136 206.429C136 216.444 134.601 216 166.178 216C191.553 216 193.167 215.892 192.445 214.25C190.8 210.505 190.786 204.975 192.417 202.487L194.046 200H165.023H136V206.429ZM160.406 205.383C160.096 206.192 159.99 207.9 160.171 209.177C160.482 211.372 160.914 211.5 168 211.5H175.5V208V204.5L168.236 204.206C162.568 203.976 160.847 204.235 160.406 205.383ZM16 224V232H97.568H179.136L177.068 229.096C175.931 227.498 175 225.698 175 225.096C175 224.34 169.035 223.999 155.75 223.996C138.506 223.993 136.171 223.792 133.339 222.065C131.601 221.005 129.883 219.207 129.522 218.069C128.868 216.009 128.614 216 72.433 216H16V224Z" fill="black"/>
</svg>
