<svg width="256" height="256" viewBox="0 0 256 256" fill="none" xmlns="http://www.w3.org/2000/svg">
<g clip-path="url(#clip0_2074_150)">
<path fill-rule="evenodd" clip-rule="evenodd" d="M2.174 42.314L0 44.629V115.64V186.651L2.314 188.826L4.629 191H128.127H251.626L254.313 188.195L257 185.391V114.136C257 74.216 256.619 43.117 256.134 43.417C255.657 43.712 254.462 43.063 253.479 41.976C251.716 40.028 249.928 40 128.019 40H4.349L2.174 42.314ZM0.474 115.5C0.474 155.1 0.598 171.154 0.75 151.176C0.901 131.198 0.901 98.798 0.75 79.176C0.598 59.554 0.474 75.9 0.474 115.5ZM8 115.5V183H128H248V115.5V48H128H8V115.5ZM99 199.167C86.34 200.359 67.913 204.165 60.5 207.12C55.043 209.294 54.5 209.781 54.5 212.492C54.5 216.545 56.42 216.729 66.337 213.626C98.874 203.448 157.126 203.448 189.663 213.626C199.58 216.729 201.5 216.545 201.5 212.492C201.5 209.781 200.957 209.294 195.5 207.12C187.683 204.004 169.464 200.377 155 199.057C141.556 197.829 112.596 197.886 99 199.167Z" fill="black"/>
</g>
<defs>
<clipPath id="clip0_2074_150">
<rect width="256" height="256" fill="white"/>
</clipPath>
</defs>
</svg>
