<svg width="256" height="256" viewBox="0 0 256 256" fill="none" xmlns="http://www.w3.org/2000/svg">
<path fill-rule="evenodd" clip-rule="evenodd" d="M49.339 48.9329C44.664 51.0559 37 58.2229 37 60.4719C37 61.2819 34.308 66.0439 31.017 71.0549C24.682 80.7029 22.316 86.9299 17.062 107.774C9.63702 137.231 7.08702 153.47 7.03102 171.645C6.99102 184.776 9.33702 192.829 15.117 199.395C20.354 205.345 25.438 207.929 33.359 208.669C38.48 209.147 40.532 208.858 44.512 207.098C55.915 202.053 59.46 197.325 68.265 175.415C72.571 164.699 75.124 159.56 76.08 159.685C76.861 159.787 79.525 160.619 82 161.535C88.293 163.863 97.422 163.053 103.564 159.62C108.18 157.04 108.553 157 128 157C147.447 157 147.82 157.04 152.436 159.62C158.578 163.053 167.707 163.863 174 161.535C176.475 160.619 179.139 159.787 179.92 159.685C180.876 159.56 183.429 164.699 187.735 175.415C196.54 197.325 200.085 202.053 211.488 207.098C215.468 208.858 217.52 209.147 222.641 208.669C230.562 207.929 235.646 205.345 240.883 199.395C252.476 186.225 251.902 159.21 238.938 107.774C233.684 86.9299 231.318 80.7029 224.983 71.0549C221.692 66.0439 219 61.2819 219 60.4719C219 58.2229 211.336 51.0559 206.661 48.9329C204.373 47.8939 200.977 47.0339 199.116 47.0219C190.47 46.9659 181.363 52.5629 180.812 58.2719L180.5 61.4999H128H75.5L75.188 58.2719C74.637 52.5629 65.53 46.9659 56.884 47.0219C55.023 47.0339 51.627 47.8939 49.339 48.9329ZM52 57.4999C49.686 58.8229 50.132 58.9289 58 58.9289C65.868 58.9289 66.314 58.8229 64 57.4999C62.625 56.7139 59.925 56.0709 58 56.0709C56.075 56.0709 53.375 56.7139 52 57.4999ZM192 57.4999C189.686 58.8229 190.132 58.9289 198 58.9289C205.868 58.9289 206.314 58.8229 204 57.4999C202.625 56.7139 199.925 56.0709 198 56.0709C196.075 56.0709 193.375 56.7139 192 57.4999ZM45 68.7149C42.565 69.1189 40.455 71.8609 34.378 82.5199C29.801 90.5479 19.134 133.119 16.968 152C15.158 167.782 15.507 180.618 17.921 187.066C21.203 195.829 26.742 200 35.097 200C46.226 200 51.346 194.094 60.912 170.219C69.967 147.623 71.163 146.485 80.596 151.5C87.29 155.059 93.747 154.898 100.654 151L105.97 148H128H150.03L155.346 151C162.253 154.898 168.71 155.059 175.404 151.5C184.837 146.485 186.033 147.623 195.088 170.219C204.654 194.094 209.774 200 220.903 200C229.258 200 234.797 195.829 238.079 187.066C243.136 173.562 238.938 138.739 227.436 98.7779C223.716 85.8549 222.562 83.2349 216.911 74.8859C212.494 68.3619 211.466 67.9999 197.343 67.9999C191.243 67.9999 186.674 68.5269 184.346 69.4999C182.371 70.3249 178.336 70.9999 175.378 70.9999H170V87.5989C170 105.981 169.214 109.261 164.08 112.294C161.513 113.81 157.49 114 128 114C98.51 114 94.487 113.81 91.92 112.294C86.786 109.261 86 105.981 86 87.5989V70.9999H80.622C77.664 70.9999 73.629 70.3249 71.654 69.4999C68.241 68.0739 51.781 67.5889 45 68.7149ZM95.226 87.7499L95.5 104.5H128H160.5L160.774 87.7499L161.048 70.9999H128H94.952L95.226 87.7499ZM48.819 78.5359C45.413 80.3849 44.697 82.6959 45.887 87.9939C46.841 92.2369 51.918 97.8719 54.868 97.9589C55.62 97.9819 57.982 96.2529 60.118 94.1179C63.489 90.7469 64 89.6369 64 85.6899C64 81.9709 63.521 80.7679 61.365 79.0729C58.274 76.6409 52.744 76.4049 48.819 78.5359ZM195.913 78.2819C189.199 83.4369 192.355 92.9999 200.77 92.9999C204.494 92.9999 209 89.0599 209 85.8039C209 83.0969 206.366 78.3539 204.455 77.6209C201.874 76.6309 197.637 76.9589 195.913 78.2819ZM33.229 93.6169C31.397 94.4289 29 99.4659 29 102.5C29 106.14 31.583 110.733 34.076 111.524C39.739 113.322 50 107.507 50 102.5C50 101.341 48.464 98.9029 46.586 97.0829C44.015 94.5909 42.1 93.6849 38.836 93.4129C36.451 93.2149 33.928 93.3059 33.229 93.6169ZM67.201 93.6889C65.937 93.9439 63.586 95.9689 61.977 98.1899C58.723 102.683 58.899 103.665 63.8 108.328C66.115 110.53 67.82 111.195 71.498 111.328C75.527 111.475 76.514 111.115 78.206 108.884C82.727 102.923 79.55 93.6299 72.901 93.3639C71.03 93.2879 68.466 93.4349 67.201 93.6889ZM178.455 96.4549C175.125 99.7839 175.142 104.845 178.492 107.992C186.18 115.215 197.006 103.915 189.545 96.4549C187.998 94.9069 185.948 93.9999 184 93.9999C182.052 93.9999 180.002 94.9069 178.455 96.4549ZM213.201 96.0279C208.586 100.327 209.4 106.604 214.944 109.471C217.635 110.863 218.366 110.874 221.485 109.571C223.416 108.764 225.504 106.989 226.125 105.626C228.477 100.463 224.238 93.9999 218.5 93.9999C216.745 93.9999 214.424 94.8879 213.201 96.0279ZM49.357 110.312C46.346 113.071 45.662 114.464 45.259 118.651C44.82 123.222 45.026 123.875 47.523 125.839C50.73 128.362 55.843 128.65 59.928 126.537C63.502 124.689 64.108 123.069 63.336 117.432C62.845 113.853 61.969 112.296 59.13 109.956C57.158 108.33 54.965 107 54.257 107C53.55 107 51.344 108.49 49.357 110.312ZM195.913 113.282C189.2 118.436 192.355 128 200.768 128C204.619 128 209 124.273 209 120.996C209 118.125 206.423 113.376 204.455 112.621C201.874 111.631 197.637 111.959 195.913 113.282ZM86.685 117.051C70.737 119.791 67.524 142.615 82.044 150.023C88.837 153.488 96.825 152.374 102.373 147.186C115.271 135.127 104.286 114.027 86.685 117.051ZM161.646 117.199C156.263 118.335 152.524 121.285 150.086 126.323C144.12 138.647 152.4 152 166.008 152C174.199 152 180.999 146.409 182.855 138.148C185.747 125.277 174.765 114.43 161.646 117.199ZM86.11 126.355C80.76 129.411 79.672 135.268 83.589 139.923C89.002 146.356 99 142.656 99 134.22C99 127.656 91.666 123.181 86.11 126.355ZM163 125.706C156.809 127.97 154.894 135.984 159.455 140.545C163.161 144.252 169.004 143.972 172.411 139.923C175.348 136.433 175.624 134.108 173.575 130.145C171.538 126.207 166.927 124.271 163 125.706ZM111.655 134.829C108.426 138.397 110.881 144 115.674 144C118.186 144 121 141.002 121 138.326C121 133.745 114.752 131.407 111.655 134.829ZM123.2 135.2C121.657 136.743 121.657 140.257 123.2 141.8C123.967 142.567 127.867 143 134 143C144.097 143 146 142.287 146 138.5C146 134.713 144.097 134 134 134C127.867 134 123.967 134.433 123.2 135.2Z" fill="black"/>
</svg>
